<svg version="1.1" viewBox="0.0 0.0 550.0 105.0" fill="none" stroke="none" stroke-linecap="square" stroke-miterlimit="10" xmlns:xlink="http://www.w3.org/1999/xlink" xmlns="http://www.w3.org/2000/svg">
   <clipPath id="p.0">
      <path d="m0 0l550.0 0l0 105.0l-550.0 0l0 -105.0z" clip-rule="nonzero"/>
   </clipPath>
   <g clip-path="url(#p.0)">
      <path d="m0 0l550.0 0l0 105.0l-550.0 0z" fill-rule="evenodd"/>
      <path fill="#000000" fill-opacity="0.0" d="m114.90551 0l446.89764 0l0 89.6063l-446.89764 0z" fill-rule="evenodd"/>
      <path fill="#000000" d="m152.3274 69.50815q0 3.328125 2.109375 4.734375q2.109375 1.40625 5.953125 1.40625q1.921875 0 3.96875 -0.3125q2.046875 -0.328125 3.578125 -0.84375q1.15625 1.421875 1.984375 3.15625q0.828125 1.71875 0.828125 4.140625q0 4.875 -3.65625 7.953125q-3.640625 3.0625 -12.84375 3.0625q-11.265625 0 -17.359375 -5.109375q-6.078125 -5.125 -6.078125 -16.65625l0 -54.78125q1.40625 -0.390625 4.03125 -0.828125q2.625 -0.453125 5.578125 -0.453125q5.625 0 8.765625 1.984375q3.140625 1.984375 3.140625 8.390625l0 8.1875l16.765625 0q0.765625 1.40625 1.46875 3.515625q0.703125 2.109375 0.703125 4.671875q0 4.484375 -1.984375 6.46875q-1.984375 1.984375 -5.3125 1.984375l-11.640625 0l0 19.328125zm51.200012 21.25q-1.28125 0.375 -4.046875 0.765625q-2.75 0.390625 -5.6875 0.390625q-2.8125 0 -5.0625 -0.390625q-2.234375 -0.390625 -3.78125 -1.53125q-1.53125 -1.15625 -2.359375 -3.140625q-0.828125 -1.984375 -0.828125 -5.1875l0 -38.390625q0 -2.953125 1.078125 -5.0625q1.09375 -2.109375 3.140625 -3.78125q2.046875 -1.65625 5.046875 -3.0q3.015625 -1.34375 6.46875 -2.359375q3.46875 -1.03125 7.171875 -1.609375q3.71875 -0.578125 7.421875 -0.578125q6.15625 0 9.734375 2.375q3.578125 2.359375 3.578125 7.734375q0 1.796875 -0.515625 3.53125q-0.5 1.71875 -1.265625 3.125q-2.6875 0 -5.515625 0.265625q-2.8125 0.25 -5.5 0.765625q-2.6875 0.5 -5.0625 1.078125q-2.359375 0.578125 -4.015625 1.34375l0 43.65625zm61.300995 2.171875q-7.546875 0 -14.015625 -2.109375q-6.453125 -2.109375 -11.265625 -6.328125q-4.796875 -4.234375 -7.546875 -10.625q-2.75 -6.40625 -2.75 -14.984375q0 -8.453125 2.75 -14.53125q2.75 -6.078125 7.234375 -9.984375q4.484375 -3.90625 10.234375 -5.75q5.765625 -1.859375 11.78125 -1.859375q6.78125 0 12.34375 2.046875q5.578125 2.046875 9.609375 5.640625q4.03125 3.578125 6.265625 8.578125q2.25 4.984375 2.25 10.875q0 4.34375 -2.4375 6.65625q-2.4375 2.296875 -6.78125 2.9375l-31.625 4.734375q1.421875 4.21875 5.765625 6.34375q4.359375 2.109375 9.984375 2.109375q5.25 0 9.921875 -1.34375q4.671875 -1.34375 7.609375 -3.140625q2.046875 1.28125 3.453125 3.59375q1.421875 2.296875 1.421875 4.859375q0 5.75 -5.375 8.578125q-4.109375 2.171875 -9.234375 2.9375q-5.109375 0.765625 -9.59375 0.765625zm-3.578125 -50.296875q-3.078125 0 -5.3125 1.03125q-2.234375 1.015625 -3.65625 2.609375q-1.40625 1.59375 -2.109375 3.578125q-0.703125 1.984375 -0.828125 4.046875l21.890625 -3.59375q-0.390625 -2.5625 -2.828125 -5.109375q-2.421875 -2.5625 -7.15625 -2.5625zm63.10013 48.125q-1.40625 0.25 -4.15625 0.703125q-2.75 0.453125 -5.5625 0.453125q-2.828125 0 -5.0625 -0.390625q-2.234375 -0.390625 -3.78125 -1.53125q-1.53125 -1.15625 -2.359375 -3.140625q-0.828125 -1.984375 -0.828125 -5.1875l0 -74.234375q1.40625 -0.265625 4.15625 -0.703125q2.75 -0.453125 5.5625 -0.453125q2.8125 0 5.046875 0.390625q2.25 0.375 3.78125 1.53125q1.546875 1.15625 2.375 3.140625q0.828125 1.984375 0.828125 5.171875l0 74.25zm35.840027 0q-1.40625 0.25 -4.15625 0.703125q-2.75 0.453125 -5.5625 0.453125q-2.828125 0 -5.0625 -0.390625q-2.234375 -0.390625 -3.78125 -1.53125q-1.53125 -1.15625 -2.359375 -3.140625q-0.828125 -1.984375 -0.828125 -5.1875l0 -74.234375q1.40625 -0.265625 4.15625 -0.703125q2.75 -0.453125 5.5625 -0.453125q2.8125 0 5.046875 0.390625q2.25 0.375 3.78125 1.53125q1.546875 1.15625 2.375 3.140625q0.828125 1.984375 0.828125 5.171875l0 74.25zm78.09003 -30.984375q0 7.9375 -2.4375 14.15625q-2.4375 6.203125 -6.859375 10.4375q-4.40625 4.21875 -10.546875 6.390625q-6.140625 2.171875 -13.703125 2.171875q-7.546875 0 -13.703125 -2.296875q-6.140625 -2.3125 -10.5625 -6.59375q-4.40625 -4.296875 -6.84375 -10.4375q-2.421875 -6.140625 -2.421875 -13.828125q0 -7.546875 2.421875 -13.6875q2.4375 -6.140625 6.84375 -10.421875q4.421875 -4.296875 10.5625 -6.59375q6.15625 -2.3125 13.703125 -2.3125q7.5625 0 13.703125 2.375q6.140625 2.359375 10.546875 6.65625q4.421875 4.28125 6.859375 10.421875q2.4375 6.140625 2.4375 13.5625zm-44.8125 0q0 7.8125 3.0 11.984375q3.015625 4.15625 8.390625 4.15625q5.390625 0 8.265625 -4.21875q2.875 -4.234375 2.875 -11.921875q0 -7.671875 -2.953125 -11.828125q-2.9375 -4.171875 -8.3125 -4.171875q-5.375 0 -8.328125 4.171875q-2.9375 4.15625 -2.9375 11.828125zm90.11499 29.1875q-1.796875 1.53125 -4.875 2.484375q-3.0625 0.96875 -7.28125 0.96875q-5.25 0 -9.09375 -1.46875q-3.828125 -1.46875 -5.109375 -4.15625q-1.40625 -3.078125 -3.265625 -9.734375q-1.859375 -6.65625 -3.65625 -14.59375q-1.78125 -7.9375 -3.390625 -16.125q-1.59375 -8.1875 -2.5 -14.46875q1.796875 -1.78125 4.796875 -3.125q3.015625 -1.34375 6.609375 -1.34375q4.46875 0 7.34375 1.984375q2.890625 1.984375 3.53125 6.84375q1.28125 9.734375 2.171875 16.078125q0.890625 6.328125 1.46875 10.359375q0.578125 4.03125 0.890625 6.140625q0.328125 2.109375 0.59375 3.390625l0.5 0q0.390625 -2.046875 1.34375 -5.953125q0.96875 -3.90625 2.25 -8.890625q1.28125 -5.0 2.6875 -10.8125q1.40625 -5.828125 2.8125 -11.59375q2.5625 -1.40625 5.046875 -2.171875q2.5 -0.765625 6.21875 -0.765625q4.484375 0 7.671875 1.40625q3.203125 1.40625 4.09375 4.34375q1.546875 5.640625 2.953125 10.953125q1.40625 5.3125 2.546875 9.859375q1.15625 4.53125 2.046875 8.0625q0.90625 3.515625 1.296875 5.5625l0.640625 0q1.40625 -9.859375 2.75 -20.484375q1.34375 -10.625 2.5 -21.625q2.296875 -1.40625 4.859375 -2.046875q2.5625 -0.640625 5.125 -0.640625q4.46875 0 7.40625 1.921875q2.953125 1.921875 2.953125 6.65625q0 2.046875 -0.640625 6.140625q-0.640625 4.09375 -1.671875 9.21875q-1.015625 5.109375 -2.359375 10.75q-1.34375 5.625 -2.6875 10.875q-1.34375 5.25 -2.5625 9.484375q-1.21875 4.21875 -2.109375 6.515625q-1.796875 1.53125 -5.515625 2.484375q-3.703125 0.96875 -7.921875 0.96875q-10.75 0 -12.671875 -5.375q-0.765625 -2.296875 -1.921875 -5.8125q-1.15625 -3.53125 -2.4375 -7.75q-1.28125 -4.21875 -2.4375 -8.765625q-1.140625 -4.546875 -1.90625 -8.765625q-0.90625 4.46875 -2.1875 9.28125q-1.265625 4.796875 -2.609375 9.34375q-1.34375 4.53125 -2.5 8.3125q-1.15625 3.78125 -1.796875 6.078125z" fill-rule="nonzero"/>
      <path fill="#209cee" d="m13.860892 23.397856l0 0c0 -4.973833 4.0320883 -9.005921 9.005921 -9.005921l19.428589 0l0 0c2.3885193 0 4.6792107 0.9488354 6.368149 2.6377745c1.6889381 1.6889362 2.6377716 3.9796276 2.6377716 6.368147l0 60.20166c0 4.973831 -4.032089 9.00592 -9.00592 9.00592l-19.428589 0c-4.973833 0 -9.005921 -4.032089 -9.005921 -9.00592z" fill-rule="evenodd"/>
      <path fill="#33cc99" d="m63.621006 23.398293l0 0c0 -4.973442 4.0317726 -9.005213 9.005215 -9.005213l19.427055 0l0 0c2.3883286 0 4.6788406 0.948761 6.3676453 2.6375656c1.6888046 1.6888046 2.6375656 3.9793148 2.6375656 6.367647l0 60.197952c0 4.973442 -4.031769 9.005211 -9.005211 9.005211l-19.427055 0c-4.973442 0 -9.005215 -4.031769 -9.005215 -9.005211z" fill-rule="evenodd"/>
   </g>
</svg>